<svg xmlns="http://www.w3.org/2000/svg" viewBox="0 0 456 916">
    <path fill="#343434" d="M382.1 8C417.9 8 447 37.1 447 72.9v770.2c0 35.8-29.1 64.9-64.9 64.9H73.9C38.1 908 9 878.9 9 843.1V72.9C9 37.1 38.1 8 73.9 8h308.2m0-5H73.9C35.4 3 4 34.4 4 72.9v770.2C4 881.6 35.4 913 73.9 913h308.2c38.5 0 69.9-31.4 69.9-69.9V72.9C452 34.4 420.6 3 382.1 3z"/>
    <g class="instascreen">
        <path fill="#fff" d="M29 111.8h398v692.8H29z"/>
        <path fill="#ED4956" d="M62 652c-1.7 0-3.2.8-4.3 2-.5.6-1.4.6-1.9 0-1.2-1.2-2.7-2-4.3-2-3.6 0-7 3.2-7 7.4 0 1.9.5 4.2 2.7 6.4 2.7 2.7 7 6.3 8.8 7.8.5.4 1.2.4 1.7 0 1.8-1.5 6.1-5.1 8.8-7.8 2.1-2.1 2.7-4.5 2.7-6.4-.1-4.2-3.6-7.4-7.2-7.4z"/>
        <circle fill="#D8D8D8" cx="57.1" cy="205.2" r="17.5"/>
        <path class="st2" d="M84.7 202h50.9v9H84.7zM44.4 691.2h267.5v10.6H44.4zM44.4 719.4H228V730H44.4zM44.4 747.5H228v10.6H44.4z"/>
    </g>
</svg>
